<svg width="25" height="25" viewBox="0 0 25 25" fill="none" xmlns="http://www.w3.org/2000/svg">
<path d="M12.1408 6.0291C11.8747 4.57842 12.5606 3.0855 13.3867 2.07939C14.2971 0.969287 15.8595 0.117969 17.1946 0.0244141C17.4202 1.54536 16.7994 3.02725 15.9824 4.07544C15.1059 5.20151 13.599 6.07476 12.1408 6.0291ZM19.9723 11.2857C20.3855 10.1331 21.2039 9.096 22.4737 8.39629C21.1906 6.79512 19.389 5.86553 17.689 5.86553C15.4397 5.86553 14.4887 6.93716 12.9264 6.93716C11.317 6.93716 10.0961 5.86553 8.14779 5.86553C6.23729 5.86553 4.20365 7.02998 2.9139 9.0187C2.43968 9.75381 2.11844 10.667 1.94325 11.6842C1.45711 14.5377 2.18329 18.2544 4.34945 21.5545C5.40267 23.1559 6.80653 24.9597 8.64051 24.9754C10.2743 24.9914 10.7377 23.9309 12.9494 23.9199C15.1643 23.9073 15.5841 24.9864 17.2156 24.9708C19.0501 24.9553 20.5313 22.9591 21.5846 21.358C22.3345 20.2089 22.6181 19.6286 23.2013 18.3295C20.2361 17.2113 19.0165 13.9439 19.9723 11.2857Z" fill="white"/>
</svg>
