<svg width="43" height="43" viewBox="0 0 43 43" fill="none" xmlns="http://www.w3.org/2000/svg">
<path fill-rule="evenodd" clip-rule="evenodd" d="M4.03124 21.285C4.01332 21.6021 4.05811 21.9837 4.1477 22.7506L4.86615 28.8924C5.14761 31.2975 6.30246 33.5156 8.11144 35.1254C9.92042 36.7352 12.2576 37.6247 14.6791 37.625H21.1542C23.057 37.6248 24.9193 37.0753 26.5174 36.0423C28.1154 35.0094 29.3812 33.537 30.1627 31.8021H34.0417C35.8236 31.8021 37.5325 31.0942 38.7925 29.8342C40.0525 28.5742 40.7604 26.8652 40.7604 25.0833C40.7604 23.3014 40.0525 21.5925 38.7925 20.3324C37.5325 19.0724 35.8236 18.3646 34.0417 18.3646H29.9584C29.6136 18.173 29.2395 18.0398 28.8512 17.9704C28.5394 17.9167 28.1524 17.9167 27.382 17.9167H8.45128C7.68086 17.9167 7.29565 17.9167 6.9839 17.9704C6.19152 18.1114 5.46969 18.5151 4.9347 19.1164C4.39971 19.7177 4.08273 20.4816 4.03482 21.285M31.7824 21.0521C31.7913 21.1291 31.8003 21.2079 31.8039 21.285C31.8218 21.6021 31.7788 21.9837 31.6892 22.7506L30.9707 28.8924L30.9421 29.1146H34.0417C35.1108 29.1146 36.1362 28.6899 36.8922 27.9338C37.6482 27.1778 38.0729 26.1525 38.0729 25.0833C38.0729 24.0142 37.6482 22.9888 36.8922 22.2328C36.1362 21.4768 35.1108 21.0521 34.0417 21.0521H31.7824Z" fill="white"/>
<path opacity="0.5" fill-rule="evenodd" clip-rule="evenodd" d="M18.8662 2.63374C19.1179 2.88569 19.2592 3.22723 19.2592 3.58332C19.2592 3.93942 19.1179 4.28095 18.8662 4.5329C18.6435 4.75654 18.5184 5.05934 18.5184 5.37499C18.5184 5.69064 18.6435 5.99343 18.8662 6.21707C19.5932 6.94415 20.0015 7.93019 20.0015 8.95832C20.0015 9.98645 19.5932 10.9725 18.8662 11.6996C18.6115 11.9369 18.2746 12.0662 17.9265 12.06C17.5783 12.0539 17.2462 11.9128 17 11.6666C16.7538 11.4204 16.6128 11.0883 16.6066 10.7402C16.6005 10.392 16.7297 10.0551 16.9671 9.8004C17.4329 9.33457 17.4329 8.58207 16.9671 8.11624C16.2402 7.38915 15.8318 6.40312 15.8318 5.37499C15.8318 4.34686 16.2402 3.36082 16.9671 2.63374C17.219 2.3821 17.5606 2.24075 17.9167 2.24075C18.2727 2.24075 18.6143 2.3821 18.8662 2.63374ZM10.8037 5.32124C11.0554 5.57319 11.1967 5.91473 11.1967 6.27082C11.1967 6.62692 11.0554 6.96845 10.8037 7.2204L10.5959 7.42824C10.3849 7.63909 10.257 7.91906 10.236 8.21665C10.2149 8.51423 10.302 8.80942 10.4812 9.0479C11.0484 9.80376 11.3238 10.7388 11.257 11.6814C11.1902 12.6241 10.7856 13.5109 10.1175 14.1792L9.9097 14.3871C9.65638 14.632 9.31701 14.7676 8.96468 14.7647C8.61235 14.7618 8.27525 14.6206 8.02599 14.3716C7.77673 14.1226 7.63525 13.7856 7.63202 13.4333C7.6288 13.081 7.76408 12.7415 8.00874 12.4879L8.21657 12.2801C8.42762 12.0692 8.55544 11.7892 8.57651 11.4917C8.59757 11.1941 8.51048 10.8989 8.33124 10.6604C7.76432 9.90434 7.48917 8.96914 7.55631 8.02652C7.62345 7.08391 8.02838 6.19715 8.69674 5.52907L8.90457 5.32124C9.15652 5.0696 9.49806 4.92825 9.85415 4.92825C10.2102 4.92825 10.5518 5.0696 10.8037 5.32124ZM27.8246 5.32124C28.0762 5.57319 28.2176 5.91473 28.2176 6.27082C28.2176 6.62692 28.0762 6.96845 27.8246 7.2204L27.6167 7.42824C27.4057 7.63909 27.2779 7.91906 27.2568 8.21665C27.2357 8.51423 27.3228 8.80942 27.5021 9.0479C28.0692 9.80376 28.3447 10.7388 28.2779 11.6814C28.211 12.6241 27.8065 13.5109 27.1384 14.1792L26.9287 14.3871C26.8057 14.5191 26.6574 14.625 26.4925 14.6984C26.3277 14.7719 26.1498 14.8114 25.9693 14.8145C25.7889 14.8177 25.6097 14.7845 25.4424 14.717C25.2751 14.6494 25.1231 14.5488 24.9955 14.4212C24.8679 14.2936 24.7673 14.1416 24.6997 13.9743C24.6321 13.8069 24.5989 13.6277 24.6021 13.4473C24.6053 13.2669 24.6448 13.0889 24.7182 12.9241C24.7917 12.7593 24.8975 12.6109 25.0296 12.4879L25.2374 12.2801C25.4485 12.0692 25.5763 11.7892 25.5973 11.4917C25.6184 11.1941 25.5313 10.8989 25.3521 10.6604C24.7852 9.90434 24.51 8.96914 24.5771 8.02652C24.6443 7.08391 25.0492 6.19715 25.7176 5.52907L25.9254 5.32124C26.1774 5.0696 26.5189 4.92825 26.875 4.92825C27.2311 4.92825 27.5726 5.0696 27.8246 5.32124Z" fill="white"/>
</svg>
