<svg width="182" height="182" viewBox="0 0 182 182" fill="none" xmlns="http://www.w3.org/2000/svg">
<g clip-path="url(#clip0_4_39)">
<path d="M91 34.5199C59.8563 34.5199 34.5182 59.8577 34.5182 91.0018C34.5182 122.146 59.8563 147.483 91 147.483C122.144 147.483 147.482 122.145 147.482 91.0014C147.482 59.8574 122.144 34.5199 91 34.5199Z" fill="#FFF0E6"/>
<path d="M91 59.6228C73.6979 59.6228 59.6213 73.6993 59.6213 91.0014C59.6213 108.304 73.6979 122.38 91 122.38C108.302 122.38 122.379 108.304 122.379 91.0014C122.379 73.6993 108.302 59.6228 91 59.6228Z" fill="#FFE2C7"/>
<path d="M172.585 126.808C172.197 126.808 171.802 126.737 171.419 126.585C169.81 125.938 169.029 124.112 169.674 122.503C173.688 112.489 175.723 101.889 175.723 91.0014C175.723 89.2671 177.128 87.8637 178.861 87.8637C180.593 87.8637 181.998 89.2671 181.998 91.0014C181.998 102.692 179.812 114.076 175.499 124.838C175.007 126.063 173.831 126.808 172.585 126.808Z" fill="#144272"/>
<path d="M177.966 81.5879C176.43 81.5879 175.088 80.4604 174.865 78.8945C174.128 73.7527 172.912 68.6595 171.249 63.7597C170.691 62.1203 171.571 60.3366 173.212 59.7792C174.854 59.2215 176.635 60.1009 177.191 61.7435C178.979 67.008 180.286 72.4808 181.076 78.0058C181.323 79.7217 180.131 81.3124 178.415 81.5577C178.264 81.5787 178.114 81.5879 177.966 81.5879Z" fill="#2C74B3"/>
<path d="M169.454 54.5392C168.308 54.5392 167.205 53.9107 166.652 52.8202C165.935 51.4047 165.18 50.007 164.389 48.6406C163.52 47.1423 164.032 45.2206 165.531 44.3536C167.032 43.4831 168.953 43.9949 169.818 45.4964C170.67 46.9674 171.481 48.4628 172.25 49.9828C173.033 51.5302 172.414 53.4181 170.868 54.2026C170.415 54.4315 169.931 54.5392 169.454 54.5392Z" fill="white"/>
<path d="M168.676 132.217C167.181 131.347 165.258 131.858 164.389 133.36C149.274 159.492 121.153 175.724 91 175.724C68.2585 175.724 46.7161 166.637 30.849 150.621H40.794C42.5269 150.621 43.9317 149.218 43.9317 147.484C43.9317 145.749 42.5269 144.346 40.794 144.346H21.9665C20.2336 144.346 18.8288 145.749 18.8288 147.484V166.311C18.8288 168.045 20.2336 169.449 21.9665 169.449C23.6995 169.449 25.1043 168.045 25.1043 166.311V153.739C42.2563 171.758 65.9569 182 91 182C123.385 182 153.587 164.567 169.822 136.504C170.69 135.002 170.178 133.084 168.676 132.217Z" fill="#0A2647"/>
<path d="M91 156.897C54.6647 156.897 25.1046 127.336 25.1046 91.0018C25.1046 54.6679 54.6647 25.106 91 25.106C127.335 25.106 156.895 54.6675 156.895 91.0014C156.895 127.335 127.335 156.897 91 156.897ZM91 34.5199C59.8563 34.5199 34.5181 59.8577 34.5181 91.0018C34.5181 122.146 59.8563 147.483 91 147.483C122.144 147.483 147.482 122.145 147.482 91.0014C147.482 59.8574 122.144 34.5199 91 34.5199Z" fill="#FFDCB9"/>
<path d="M43.9317 94.1395H31.3801C29.6472 94.1395 28.2423 92.7361 28.2423 91.0018C28.2423 89.2674 29.6472 87.8641 31.3801 87.8641H43.9317C45.6646 87.8641 47.0694 89.2674 47.0694 91.0018C47.0694 92.7361 45.6646 94.1395 43.9317 94.1395Z" fill="#E1BE91"/>
<path d="M150.62 94.1395H138.068C136.335 94.1395 134.93 92.7361 134.93 91.0018C134.93 89.2674 136.335 87.8641 138.068 87.8641H150.62C152.352 87.8641 153.757 89.2674 153.757 91.0018C153.757 92.7361 152.352 94.1395 150.62 94.1395Z" fill="#E1BE91"/>
<path d="M125.517 94.1395H75.3107C73.5778 94.1395 72.1729 92.7361 72.1729 91.0018C72.1729 89.2674 73.5778 87.8641 75.3107 87.8641H125.517C127.25 87.8641 128.654 89.2674 128.654 91.0018C128.654 92.7361 127.25 94.1395 125.517 94.1395Z" fill="#464655"/>
<path d="M78.4484 106.691C77.6454 106.691 76.8427 106.385 76.2299 105.772C75.0043 104.546 75.0043 102.56 76.2299 101.335L123.298 54.2662C124.524 53.0406 126.51 53.0406 127.736 54.2662C128.961 55.4919 128.961 57.4779 127.736 58.7035L80.6672 105.771C80.0544 106.385 79.2514 106.691 78.4484 106.691Z" fill="#707487"/>
<path d="M87.8623 43.9334V31.3818C87.8623 29.6489 89.2657 28.2441 91 28.2441C92.7343 28.2441 94.1377 29.6489 94.1377 31.3818V43.9334C94.1377 45.6664 92.7343 47.0712 91 47.0712C89.2657 47.0712 87.8623 45.6664 87.8623 43.9334Z" fill="#E1BE91"/>
<path d="M87.8623 150.621V138.07C87.8623 136.337 89.2657 134.932 91 134.932C92.7343 134.932 94.1377 136.337 94.1377 138.07V150.621C94.1377 152.354 92.7343 153.759 91 153.759C89.2657 153.759 87.8623 152.354 87.8623 150.621Z" fill="#E1BE91"/>
<path d="M90.9986 100.416C96.1975 100.416 100.412 96.2014 100.412 91.0025C100.412 85.8035 96.1975 81.589 90.9986 81.589C85.7996 81.589 81.5851 85.8035 81.5851 91.0025C81.5851 96.2014 85.7996 100.416 90.9986 100.416Z" fill="#5B5D6E"/>
<path d="M90.9986 94.1402C92.7315 94.1402 94.1363 92.7354 94.1363 91.0025C94.1363 89.2696 92.7315 87.8648 90.9986 87.8648C89.2656 87.8648 87.8608 89.2696 87.8608 91.0025C87.8608 92.7354 89.2656 94.1402 90.9986 94.1402Z" fill="#464655"/>
<path d="M160.033 12.5548C158.301 12.5548 156.896 13.9582 156.896 15.6925V28.2615C139.744 10.2414 116.043 0 91 0C58.6147 0 28.4126 17.4329 12.1776 45.4961C11.3103 46.9976 11.8222 48.9161 13.3237 49.783C13.8171 50.071 14.3581 50.2057 14.8909 50.2057C15.9744 50.2057 17.0284 49.6448 17.6106 48.6399C32.7259 22.5076 60.847 6.2758 91 6.2758C113.743 6.2758 135.286 15.3634 151.154 31.3818H141.206C139.473 31.3818 138.068 32.7852 138.068 34.5196C138.068 36.2539 139.473 37.6573 141.206 37.6573H160.033C161.766 37.6573 163.171 36.2539 163.171 34.5196V15.6925C163.171 13.9582 161.766 12.5548 160.033 12.5548Z" fill="#0A2647"/>
<path d="M3.13949 94.1363C1.40658 94.1363 0.00177002 92.7329 0.00177002 90.9986C0.00177002 79.3079 2.18826 67.924 6.50116 57.1622C7.14491 55.5534 8.96314 54.7568 10.5812 55.4186C12.1901 56.0624 12.9714 57.8884 12.3262 59.4969C8.31227 69.5116 6.27757 80.1109 6.27757 90.9986C6.27722 92.7329 4.8724 94.1363 3.13949 94.1363Z" fill="#144272"/>
<path d="M7.78049 122.386C6.47343 122.386 5.25239 121.565 4.80983 120.256C3.02147 114.992 1.71441 109.519 0.924206 103.994C0.677511 102.278 1.8694 100.687 3.5856 100.442C5.30003 100.2 6.89039 101.389 7.13567 103.105C7.87255 108.247 9.0879 113.34 10.7519 118.24C11.3096 119.879 10.4302 121.663 8.78895 122.22C8.45446 122.335 8.11463 122.386 7.78049 122.386Z" fill="#2C74B3"/>
<path d="M14.8988 138.07C13.8153 138.07 12.7613 137.509 12.1805 136.504C11.3284 135.033 10.5183 133.538 9.74909 132.018C8.96635 130.47 9.58522 128.582 11.1308 127.798C12.6739 127.016 14.5643 127.635 15.3474 129.179C16.0643 130.595 16.8197 131.993 17.6106 133.359C18.4794 134.857 17.9675 136.779 16.4678 137.646C15.973 137.935 15.432 138.07 14.8988 138.07Z" fill="white"/>
</g>
<defs>
<clipPath id="clip0_4_39">
<rect width="182" height="182" fill="white"/>
</clipPath>
</defs>
</svg>
