<svg width="21" height="20" viewBox="0 0 21 20" fill="none" xmlns="http://www.w3.org/2000/svg">
<g clip-path="url(#clip0_4_81)">
<path d="M14.9517 12.172C14.9517 13.012 15.1963 13.347 15.836 13.347C17.2618 13.347 18.1697 11.572 18.1697 8.62C18.1697 4.108 14.8043 1.948 10.6027 1.948C6.28036 1.948 2.34898 4.78 2.34898 10.132C2.34898 15.244 5.78804 18.028 11.0695 18.028C12.8627 18.028 14.0663 17.836 15.9077 17.236L16.3028 18.843C14.485 19.42 12.5423 19.587 11.0449 19.587C4.11764 19.587 0.407349 15.867 0.407349 10.131C0.407349 4.347 4.7072 0.411003 10.6273 0.411003C16.793 0.411003 20.0591 4.011 20.0591 8.427C20.0591 12.171 18.8565 15.027 15.0735 15.027C13.3529 15.027 12.224 14.355 12.0766 12.866C11.6344 14.522 10.4553 15.027 8.85761 15.027C6.72048 15.027 4.92725 13.418 4.92725 10.179C4.92725 6.915 6.50042 4.899 9.32536 4.899C10.8238 4.899 11.7573 5.475 12.1728 6.387L12.8862 5.115H14.9497V12.172H14.9517ZM11.9313 9.004C11.9313 7.685 10.9231 7.132 10.0879 7.132C9.179 7.132 8.17287 7.851 8.17287 9.964C8.17287 11.644 8.93437 12.58 10.0879 12.58C10.8985 12.58 11.9313 12.076 11.9313 10.684V9.004Z" fill="white"/>
</g>
<defs>
<clipPath id="clip0_4_81">
<rect width="20.4706" height="20" fill="white"/>
</clipPath>
</defs>
</svg>
