<svg width="348" height="232" viewBox="0 0 348 232" fill="none" xmlns="http://www.w3.org/2000/svg">
<path d="M32.0759 176.214L306.594 177.722C306.594 177.722 174.523 202.358 32.0759 176.214Z" fill="#CCE0ED"/>
<path d="M258.915 47.5702H255.691V162.413H258.915V47.5702Z" fill="#666666"/>
<path d="M278.414 57.9309H237.437L250.574 19.1289H265.42L278.414 57.9309Z" fill="#E8AD3A"/>
<path d="M252.969 23.7661L246.14 54.584C246.14 54.584 244.899 31.7988 252.969 23.7661Z" fill="#D39933"/>
<path d="M262.65 23.9921L271.266 54.3585C271.266 54.3585 271.175 31.5395 262.65 23.9921Z" fill="#D39933"/>
<path d="M257.277 20.9004L257.997 52.4575C257.997 52.4575 263.635 30.3461 257.277 20.9004Z" fill="#D39933"/>
<path d="M269.618 162.084L267.682 178.462H263.082L262.22 161.943L269.618 162.084Z" fill="#7F4C28"/>
<path d="M69.5453 162.084L71.4816 178.462H76.0817L76.9433 161.943L69.5453 162.084Z" fill="#7F4C28"/>
<path d="M268.72 112.306L245.2 111.654L246.126 139.443L268.72 146.565V112.306Z" fill="#325B6B"/>
<path d="M68.7189 112.042L92.2386 111.39L91.3129 139.179L68.7189 146.301V112.042Z" fill="#325B6B"/>
<path d="M251.632 139.67L244.021 105.965C241.176 93.3628 229.98 84.4132 217.061 84.4132H120.35C107.288 84.4132 96.0104 93.5559 93.3081 106.334L86.2585 139.67H251.632V139.67Z" fill="#48768C"/>
<path d="M249.009 138.442H174.827H163.007H88.8263C81.2478 138.442 75.104 143.995 75.104 150.844V167.421H163.007H174.827H262.731V150.844C262.731 143.995 256.587 138.442 249.009 138.442Z" fill="#608EA0"/>
<path d="M81.6121 167.685V120.493C81.6121 115.826 77.8463 112.042 73.2007 112.042H69.7625C65.1169 112.042 61.3511 115.826 61.3511 120.493V167.685H81.6121Z" fill="#48768C"/>
<path d="M255.826 167.685V120.717C255.826 116.072 259.592 112.306 264.238 112.306H267.676C272.322 112.306 276.087 116.072 276.087 120.717V167.685H255.826Z" fill="#48768C"/>
<path d="M71.4815 127.429C73.295 127.429 74.7652 125.901 74.7652 124.017C74.7652 122.133 73.295 120.606 71.4815 120.606C69.6679 120.606 68.1978 122.133 68.1978 124.017C68.1978 125.901 69.6679 127.429 71.4815 127.429Z" fill="#325B6B"/>
<path d="M72.0179 131.312V158.734C72.0179 158.734 66.4537 145.023 72.0179 131.312Z" fill="#325B6B"/>
<path d="M255.826 150.23H81.6121V167.686H255.826V150.23Z" fill="#48768C"/>
<path d="M135.087 89.6712V124.358C135.087 124.358 128.048 107.015 135.087 89.6712Z" fill="#325B6B"/>
<path d="M266.455 126.14C268.269 126.14 269.739 124.613 269.739 122.729C269.739 120.845 268.269 119.318 266.455 119.318C264.642 119.318 263.172 120.845 263.172 122.729C263.172 124.613 264.642 126.14 266.455 126.14Z" fill="#325B6B"/>
<path d="M200.476 90.7705V125.458C200.476 125.458 207.514 108.114 200.476 90.7705Z" fill="#325B6B"/>
<path d="M265.919 130.023V157.445C265.919 157.445 271.483 143.734 265.919 130.023Z" fill="#325B6B"/>
<path d="M84.5562 157.445H254.256C254.256 157.445 196.228 164.888 84.5562 157.445Z" fill="#325B6B"/>
<path d="M238.495 112.301C238.495 112.301 231.774 129.835 232.065 132.757C232.358 135.679 234.403 139.236 235.767 139.237L258.756 139.409C258.756 139.409 261.408 138.894 262.76 134.51C264.113 130.127 268.496 113.47 268.496 112.983C268.496 112.496 269.081 109.69 266.451 107.538C263.821 105.385 246.482 105.918 243.17 106.944C240.744 107.695 239.798 108.818 238.495 112.301Z" fill="#DE8B2E"/>
<path d="M263.811 108.891L255.388 137.223C255.388 137.223 267.278 121.604 263.811 108.891Z" fill="#BC7228"/>
<path d="M248.658 117.472L257.926 109.285C257.926 109.285 249.519 112.517 248.658 117.472Z" fill="#BC7228"/>
<path d="M242.768 109.931L244.851 117.041C244.851 117.041 241.116 113.522 242.768 109.931Z" fill="#BC7228"/>
<path d="M246.144 123.057L250.304 133.489C250.304 133.489 250.884 125.481 246.144 123.057Z" fill="#BC7228"/>
<path d="M233.862 131.549L242.768 123.505C242.768 123.505 234.939 125.916 233.862 131.549Z" fill="#BC7228"/>
<path d="M312.976 134.358H293.781H293.41H274.215C272.587 134.358 271.266 135.229 271.266 136.303C271.266 137.378 272.586 138.249 274.215 138.249H292.455V175.315C288.925 175.686 284.425 176.384 284.425 176.384V178.565H306.593V176.384C306.593 176.384 302.286 175.701 298.864 175.328V138.249H312.976C314.605 138.249 315.925 137.378 315.925 136.304C315.924 135.229 314.605 134.358 312.976 134.358Z" fill="#A38260"/>
<path d="M293.133 138.298H298.393C298.393 138.298 295.565 140.729 293.133 138.298Z" fill="#8C6D51"/>
<path d="M280.843 123.849V126.577C280.843 128.413 282.205 129.926 283.973 130.172V133.943H282.624V134.358H286.131V133.943H284.782V130.195C286.646 130.04 288.11 128.481 288.11 126.577V123.849H280.843Z" fill="#787C91"/>
<path d="M299.1 119.07H297.734V113.641H295.076V119.07H294.067C292.49 119.07 291.211 120.349 291.211 121.926V134.358H301.956V121.926C301.956 120.349 300.677 119.07 299.1 119.07Z" fill="#91B0DC"/>
<path d="M301.955 122.972H291.211V130.211H301.955V122.972Z" fill="#787C91"/>
<path d="M298.299 112.306H294.375V114.3H298.299V112.306Z" fill="#A38260"/>
<path d="M117.835 84.5529C117.835 84.5529 113.335 80.7392 114.952 75.1842C116.57 69.6292 124.094 65.34 133.094 67.0976C142.095 68.8557 149.267 78.3812 149.97 84.5524L117.835 84.5529Z" fill="#E8AD3A"/>
<path d="M147.927 72.0764C147.927 72.0764 150.081 69.9225 153.56 69.9225L152.18 75.6111L147.927 72.0764Z" fill="#9B6F17"/>
<path d="M142.957 72.2838L140.513 68.5973C140.513 68.5973 136.605 71.7451 137.986 75.6111C139.367 79.4767 142.957 72.2838 142.957 72.2838Z" fill="#9B6F17"/>
<path d="M138.87 73.4572C138.87 73.4572 134.01 77.0467 134.507 80.9128C135.004 84.7788 140.361 85.4799 147.927 85.1018C155.493 84.7236 154.389 79.6428 154.113 78.1515C153.837 76.6602 148.424 66.0569 138.87 73.4572Z" fill="#E8AD3A"/>
<path d="M139.544 75.9563C139.544 75.9563 140.057 77.6096 142.231 77.7214C144.406 77.8332 144.373 76.1262 144.373 76.1262C144.373 76.1262 142.117 78.5 139.544 75.9563Z" fill="#9B6F17"/>
<path d="M142.718 78.8703C142.718 78.8703 143.847 77.932 145.839 78.2383C147.831 78.5445 148.425 79.7129 148.559 80.1917C148.693 80.6706 147.85 82.528 145.361 82.1452C142.871 81.7619 141.434 79.9045 142.718 78.8703Z" fill="#FFD068"/>
<path d="M146.724 76.2547C146.724 76.2547 147.236 77.9079 149.411 78.0197C151.586 78.1316 151.553 76.4245 151.553 76.4245C151.553 76.4245 149.297 78.7988 146.724 76.2547Z" fill="#9B6F17"/>
<path d="M144.901 78.6021C144.901 78.6021 145.993 78.5065 146.452 78.8317C146.911 79.1575 145.571 80.0766 145.571 80.0766C145.571 80.0766 144.077 78.9658 144.901 78.6021Z" fill="#9B6F17"/>
<path d="M137.045 75.1221C137.045 75.1221 130.585 81.0181 138.396 84.5529C138.396 84.5529 133.226 81.4942 137.045 75.1221Z" fill="#CC9533"/>
<path d="M126.449 83.2003C131.535 82.4783 132.918 81.7238 133.587 83.7279C134.255 85.7319 121.949 88.5771 117.836 84.5529C113.722 80.5286 114.715 76.2292 114.715 76.2292C114.715 76.2292 116.921 84.5529 126.449 83.2003Z" fill="#9B6F17"/>
<path d="M172.698 119.724C172.698 119.724 171.383 134.354 175.327 139.226L172.698 119.724Z" fill="#47436D"/>
<path d="M113.003 137.56C113.003 137.56 110.65 140.515 107.212 144.422C107.212 144.422 107.212 144.427 107.207 144.432C106.915 144.761 106.613 145.1 106.307 145.443C105.133 146.766 103.305 146.761 101.305 146.06C98.7578 145.165 95.9274 143.142 93.8069 141.29C92.6144 140.246 91.6447 139.258 91.074 138.557C91.074 138.553 91.0693 138.553 91.0647 138.548C90.0021 137.43 89.7191 135.551 89.7191 135.551C89.218 135.128 88.986 133.463 90.8791 134.47C91.6586 134.887 93.7466 135.49 95.9228 136.056C95.9228 136.056 95.9228 136.056 95.9274 136.061C99.0316 136.868 102.326 137.602 102.326 137.602C102.688 137.685 103.05 137.824 103.384 137.982L106.307 133.231L113.003 137.56Z" fill="#C45B51"/>
<path d="M93.8069 141.29C92.6144 140.246 91.6447 139.258 91.074 138.557C91.074 138.553 91.0693 138.553 91.0647 138.548C90.0021 137.43 89.7191 135.551 89.7191 135.551C89.218 135.128 88.986 133.463 90.8791 134.47C91.6586 134.887 93.7466 135.49 95.9228 136.056C95.9228 136.056 95.9228 136.056 95.9274 136.061C95.9738 136.237 96.8832 139.796 93.8069 141.29Z" fill="#A0433F"/>
<path d="M104.729 135.795C104.729 135.795 104.528 136.558 105.63 136.925C106.732 137.292 107.235 137.659 107.428 138.085C107.622 138.51 108.337 139.109 109.052 139.206C109.768 139.303 110.618 139.96 110.541 140.55L111.102 139.879C111.102 139.879 111.043 138.955 109.922 138.549C108.801 138.143 107.931 137.698 107.718 137.292C107.506 136.886 106.597 136.268 105.92 136.248C105.244 136.229 105.096 135.198 105.096 135.198L104.729 135.795Z" fill="#A0433F"/>
<path d="M105.002 142.822C105.002 142.822 105.756 142.792 106.162 141.952C106.568 141.111 106.482 140.762 106.482 140.762C106.482 140.762 107.757 143.112 105.002 142.822Z" fill="#B25454"/>
<path d="M107.212 144.422C107.212 144.422 107.212 144.427 107.207 144.432C106.915 144.761 106.613 145.1 106.307 145.443C105.133 146.766 103.305 146.761 101.305 146.06C101.305 146.06 102.451 143.982 104.159 143.893C105.871 143.81 107.212 144.422 107.212 144.422Z" fill="#A0433F"/>
<path d="M91.0531 135.774L93.4891 136.152C93.4891 136.152 92.4743 135.078 91.0531 135.774Z" fill="#843131"/>
<path d="M228.832 126.989C228.832 126.989 217.828 145.843 204.369 143.364C190.911 140.887 188.54 103.611 188.54 103.611H194.681C194.681 103.611 200.283 125.265 205.131 126.989C209.979 128.713 216.228 121.935 216.228 121.935C216.228 121.935 225.707 118.479 228.832 126.989Z" fill="#E2B288"/>
<path d="M194.672 103.709C194.672 103.709 195.437 102.119 195.937 99.528C196.437 96.937 194.134 94.6022 193.844 93.94C193.554 93.2779 192.396 93.6088 193.265 96.4651C194.134 99.3211 192.023 97.376 190.616 95.3474C189.208 93.3192 190.45 91.0424 188.629 88.8486C186.808 86.6548 187.015 90.6698 187.304 92.0358C187.304 92.0358 186.311 92.574 186.104 93.857C185.897 95.14 186.104 95.9571 186.104 95.9571C186.104 95.9571 185.442 96.6716 185.524 97.7894C185.607 98.9067 185.897 99.1141 185.897 99.1141C185.897 99.1141 185.483 99.7762 185.773 101.184C186.062 102.591 189.001 106.771 189.001 106.771L194.672 103.709Z" fill="#E2B288"/>
<path d="M228.834 106.058L224.51 110.982C224.51 110.982 232.247 115.706 236.594 114.511L244.22 105.609C244.22 105.609 232.02 108.567 228.834 106.058Z" fill="#E2B288"/>
<path d="M246.445 100.918C245.449 99.5303 244.444 99.4101 243.854 99.4992C245.155 94.8277 244.708 88.6143 235.456 85.1593C235.456 85.1593 232.145 86.5258 231.063 89.9241C229.98 93.3225 225.659 93.4102 225.659 93.4102C225.659 93.4102 224.283 99.5753 222.517 102.941C222.517 102.941 225.451 107.129 232.313 107.926C239.175 108.724 240.954 105.593 240.954 105.593C245.006 107.451 247.992 103.072 246.445 100.918Z" fill="#F0CBA5"/>
<path d="M234.186 82.5303C234.186 82.5303 233.986 86.6051 238.5 89.7047C243.013 92.8042 243.064 92.6195 243.064 92.6195C243.064 92.6195 239.559 95.7116 240.37 98.5541C240.37 98.5541 238.8 100.666 239.875 101.674C239.875 101.674 242.35 99.4807 244.247 99.4802C246.143 99.4797 247.969 103.265 244.219 105.609C244.219 105.609 241.754 106.086 240.92 105.479C240.92 105.479 239.65 106.166 239.538 107.197C239.517 107.382 240.219 109.589 240.81 109.589C240.81 109.589 245.871 107.919 248.62 105.85C251.369 103.782 255.722 98.897 253.479 94.7507C253.479 94.7507 253.036 87.7999 244.452 83.469C235.868 79.1384 234.349 80.6293 234.186 82.5303Z" fill="#3E3E44"/>
<path d="M176.933 117.36L84.1395 105.33L81.2668 113.769C81.2668 113.769 144.834 136.381 161.848 137.078C178.862 137.775 176.933 117.36 176.933 117.36Z" fill="#47436D"/>
<path d="M224.51 110.982C224.51 110.982 233.581 114.477 237.368 113.608C237.368 113.608 237.297 125.63 229.213 134.369C221.13 143.107 211.38 143.701 194.79 143.519C178.718 143.344 177.99 142.466 177.99 142.466L175.832 117.36L203.34 115.025C203.34 115.025 217.153 111.205 224.51 110.982Z" fill="#D77062"/>
<path d="M195.649 100.536C195.649 100.536 200.09 116.249 214.58 116.472C229.069 116.696 240.954 105.593 240.954 105.593" stroke="white" stroke-width="0.464" stroke-miterlimit="10" stroke-linecap="round"/>
<path d="M176.275 117.322C176.275 117.322 160.567 102.677 145.341 98.291C130.114 93.9052 104.729 132.873 104.729 132.873L114.066 138.244L142.292 116.749C142.292 116.749 151.707 139.993 177.99 142.466L176.275 117.322Z" fill="#504977"/>
<path d="M231.063 125.26C231.063 125.26 220.059 144.113 206.6 141.635C193.141 139.157 190.771 101.882 190.771 101.882H196.912C196.912 101.882 202.514 123.536 207.362 125.26C212.21 126.983 218.459 120.206 218.459 120.206C218.459 120.206 227.938 116.749 231.063 125.26Z" fill="#F0CBA5"/>
<path d="M211.348 122.531L223.508 135.818C223.508 135.818 233.756 126.968 232.679 122.936C231.602 118.904 225.784 111.183 211.348 122.531Z" fill="#C45B51"/>
<path d="M195.059 97.9476C194.581 98.1355 194.041 97.9003 193.852 97.4224L187.17 80.4325C186.982 79.9542 187.218 79.4141 187.695 79.2261C188.174 79.0378 188.714 79.2735 188.902 79.7514L195.584 96.7412C195.773 97.2191 195.537 97.7597 195.059 97.9476Z" fill="#666666"/>
<path d="M196.903 101.979C196.903 101.979 197.668 100.39 198.168 97.7987C198.668 95.2077 196.365 92.8728 196.075 92.2107C195.786 91.5486 194.627 91.8794 195.496 94.7358C196.365 97.5917 194.254 95.6466 192.847 93.618C191.439 91.5899 192.681 89.313 190.86 87.1192C189.039 84.9255 189.246 88.9404 189.535 90.3065C189.535 90.3065 188.542 90.8447 188.335 92.1277C188.128 93.4111 188.335 94.2277 188.335 94.2277C188.335 94.2277 187.673 94.9423 187.755 96.0601C187.838 97.1778 188.128 97.3848 188.128 97.3848C188.128 97.3848 187.714 98.0469 188.004 99.4542C188.293 100.862 191.232 105.042 191.232 105.042L196.903 101.979Z" fill="#F0CBA5"/>
<path d="M242.571 102.137C242.571 102.137 241.637 102.979 241.967 103.437C242.297 103.895 240.759 105.158 240.759 105.158C240.759 105.158 241.01 105.579 241.343 105.689C241.343 105.689 243.341 104.297 243.561 103.071C243.599 102.856 243.603 102.681 243.583 102.539C243.516 102.067 242.953 101.851 242.571 102.137Z" fill="white"/>
<path d="M232.409 90.6243C232.409 90.6243 233.385 90.274 234.688 91.2976C235.991 92.3212 235.776 93.6139 235.776 93.6139C235.776 93.6139 234.241 91.0554 232.409 90.6243Z" fill="#666666"/>
<path d="M232.442 93.5044C231.95 94.1767 231.372 94.5901 231.15 94.4277C230.927 94.2653 231.146 93.5883 231.638 92.916C232.13 92.2437 232.708 91.8302 232.93 91.9926C233.152 92.155 232.934 92.832 232.442 93.5044Z" fill="#666666"/>
<path d="M225.137 98.3634C225.137 98.3634 227.615 100.087 229.375 99.8718C229.375 99.8718 225.891 101.667 225.137 98.3634Z" fill="#C6826D"/>
<path d="M142.767 109.729V115.451C142.767 115.451 145.855 112.53 142.767 109.729Z" fill="#47436D"/>
<path d="M207.819 126.07L208.591 131.527C208.591 131.527 210.713 128.784 207.819 126.07Z" fill="#E2B288"/>
<path d="M83.8401 106.282L82.5688 114.156C82.5688 114.156 78.9171 113.19 73.9569 111.613C73.9569 111.613 73.9523 111.613 73.9477 111.613C73.5254 111.474 73.0939 111.334 72.6577 111.195C70.9734 110.648 70.2449 108.973 70.0825 106.862C69.9201 104.695 70.3517 102.064 70.9641 99.7159C71.1126 99.1498 71.2704 98.6023 71.4328 98.078C71.9107 96.5654 72.4257 95.2801 72.8387 94.4774V94.4727C72.848 94.3846 72.8526 94.301 72.8619 94.2175C73.015 92.111 74.8339 91.3964 75.0659 92.0506C75.2005 92.4404 75.2793 93.1271 75.3211 93.6236C75.5531 93.7396 75.7944 93.8927 75.915 94.083C76.1841 94.5052 76.8523 95.8601 76.9451 96.0921C77.0008 96.2313 76.9869 96.9087 76.9683 97.4191C77.0147 97.5862 77.0518 97.7532 77.0797 97.911C77.0797 97.911 77.0797 97.911 77.075 97.9156C77.1725 98.5188 77.2745 99.1266 77.3766 99.7159C77.3859 99.7623 77.3952 99.8134 77.3998 99.8598C77.8267 102.305 78.235 104.398 78.235 104.398C78.3046 104.76 78.3232 105.149 78.3139 105.516L83.8401 106.282Z" fill="#C45B51"/>
<path d="M80.8571 105.87C80.8571 105.87 80.0785 105.992 80.1852 107.149C80.2919 108.306 80.1578 108.914 79.846 109.262C79.5342 109.61 79.273 110.506 79.4721 111.199C79.6711 111.893 79.4113 112.937 78.8401 113.103L79.6799 113.347C79.6799 113.347 80.5026 112.922 80.4237 111.732C80.3448 110.542 80.4019 109.567 80.6882 109.209C80.9745 108.851 81.1759 107.77 80.9211 107.143C80.6669 106.515 81.5512 105.966 81.5512 105.966L80.8571 105.87Z" fill="#A0433F"/>
<path d="M74.5337 108.944C74.5337 108.944 74.8631 109.623 75.7967 109.657C76.7298 109.69 77.0138 109.471 77.0138 109.471C77.0138 109.471 75.3754 111.584 74.5337 108.944Z" fill="#B25454"/>
<path d="M73.9561 111.611C73.9561 111.611 73.9519 111.613 73.9459 111.611C73.5269 111.476 73.0953 111.336 72.6578 111.193C70.9749 110.65 70.2441 108.975 70.0817 106.862C70.0817 106.862 72.4457 107.075 73.2127 108.603C73.9779 110.137 73.9561 111.611 73.9561 111.611Z" fill="#A0433F"/>
<path d="M77.3999 99.8598C74.1821 97.968 72.2806 99.167 70.9642 99.7159C71.1127 99.1498 71.2705 98.6023 71.4329 98.078C71.9108 96.5654 72.4258 95.2801 72.8388 94.4774V94.4727C72.8481 94.3846 72.8527 94.301 72.862 94.2175C73.0151 92.111 74.834 91.3964 75.066 92.0506C75.2006 92.4404 75.2794 93.1271 75.3212 93.6236C75.5532 93.7396 75.7945 93.8927 75.9151 94.083C76.1842 94.5052 76.8524 95.8601 76.9452 96.0921C77.0009 96.2313 76.987 96.9087 76.9684 97.4191C77.0148 97.5862 77.0519 97.7532 77.0798 97.911C77.0798 97.911 77.0798 97.911 77.0751 97.9156C77.1726 98.5188 77.2746 99.1266 77.3767 99.7159C77.386 99.7623 77.3953 99.8134 77.3999 99.8598Z" fill="#A0433F"/>
<path d="M75.2771 94.14V96.4215C75.2771 96.4215 76.0311 95.068 75.2771 94.14Z" fill="#843131"/>
<path d="M111.875 131.338L140.324 110.982C140.324 110.982 121.948 126.609 112.716 131.454C112.019 131.819 112.064 131.454 111.875 131.338Z" fill="#5D5984"/>
<path d="M141.359 110.303C141.359 110.303 141.958 108.872 143.118 109.027C144.278 109.182 144.703 109.994 144.703 109.994L174.245 130.874C174.245 130.874 148.841 111.321 145.206 109.729C145.206 109.729 142.618 106.784 141.359 110.303Z" fill="#5D5984"/>
<path d="M108.975 128.438L118.023 134.47C118.023 134.47 110.715 132.536 108.975 128.438Z" fill="#5D5984"/>
<path d="M105.921 132.691L108.782 129.25C108.782 129.25 107.467 132.807 105.921 132.691Z" fill="#5D5984"/>
<path d="M109.633 134.315L111.45 132.536C111.45 132.536 111.257 134.199 109.633 134.315Z" fill="#5D5984"/>
<path d="M113.004 136.016L115.626 134.315C115.626 134.315 115.369 136.48 113.004 136.016Z" fill="#5D5984"/>
<path d="M88.6366 107.015L86.9351 114.711C86.9351 114.711 86.2516 107.808 88.6366 107.015Z" fill="#3A3859"/>
<path d="M84.7023 105.87L88.1243 106.601C88.1243 106.601 86.065 107.285 84.7023 105.87Z" fill="#3A3859"/>
<path d="M83.8402 109.608L86.5871 110.271C86.5871 110.271 84.8633 111.078 83.8402 109.608Z" fill="#3A3859"/>
<path d="M83.5131 112.98L86.4131 113.706C86.4131 113.706 84.4411 114.14 83.5131 112.98Z" fill="#3A3859"/>
</svg>
